<svg width="517" height="949" viewBox="0 0 517 949" fill="none" xmlns="http://www.w3.org/2000/svg">
<path d="M146.141 765.87V735.5H227.141V765.87L219.929 776.5H155.295L146.141 765.87Z" stroke="white" stroke-width="6"/>
<path d="M157.141 944.5C79.6414 939.5 7.6414 922 3.14135 820C0.144931 752.082 45.6414 722 58.6414 655C67.1397 611.201 49.5021 585.586 51.1414 541C53.6414 473 162.141 478.5 162.141 478.5L168.141 145.5L154.141 109.5V16.4998C154.141 9.04401 153.686 3 161.141 3H215.641C222.567 3 220.641 9.57422 220.641 16.4998V109.5L206.141 145.5L212.641 517C212.641 517 218.641 538.893 237.141 545.5C265.141 555.499 316.641 489.5 323.141 562.5C325.98 594.373 308.335 616.514 316.641 655C331.641 724.5 376.265 752.095 372.641 820.5C368.641 896 342.141 935 220.141 944.5C220.141 944.5 181.693 946.084 157.141 944.5Z" stroke="white" stroke-width="6"/>
<circle cx="188.141" cy="629.5" r="47" transform="rotate(-90 188.141 629.5)" stroke="white" stroke-width="6"/>
<ellipse cx="317.5" cy="311" rx="10.5" ry="11" fill="white"/>
<ellipse cx="362.5" cy="321" rx="10.5" ry="11" fill="white"/>
<path d="M371 267.407L326 255V264.5L371 277V267.407Z" fill="white"/>
<path d="M326 311.578V264.5M371 322V277M326 264.5V255L371 267.407V277M326 264.5L371 277" stroke="white" stroke-width="4"/>
<path d="M485.5 183.5V137M513.5 157.5C513.5 157.5 518.5 150.5 504 140.5C494.428 133.899 488.5 123 485.5 118V137M485.5 137C488.333 141 493.716 145.837 501 152C507.5 157.5 504.5 168 504.5 168" stroke="white" stroke-width="4" stroke-linecap="round"/>
<circle cx="474.5" cy="186" r="13.5" fill="white"/>
<path d="M397.5 432.5V386V367C400.5 372 406.428 382.899 416 389.5C430.5 399.5 425.5 406.5 425.5 406.5" stroke="white" stroke-width="4" stroke-linecap="round"/>
<circle cx="386.5" cy="435" r="13.5" fill="white"/>
<path d="M423.5 150V213" stroke="white" stroke-width="4"/>
<circle cx="410" cy="215.5" r="14" stroke="#FFFDFD" stroke-width="4"/>
<path d="M334.5 417V480" stroke="white" stroke-width="4"/>
<circle cx="321" cy="482.5" r="14" fill="white" stroke="#FFFDFD" stroke-width="4"/>
</svg>
